<svg xmlns="http://www.w3.org/2000/svg" xmlns:xlink="http://www.w3.org/1999/xlink" width="13.47" height="7.65" viewBox="0 0 13.47 7.65"><defs><linearGradient id="a" x1="-0.188" y1="-0.383" x2="1" y2="1" gradientUnits="objectBoundingBox"><stop offset="0" stop-color="#b6b454"/><stop offset="1" stop-color="#ff0fbc"/></linearGradient></defs><path d="M3.8,0A3.825,3.825,0,1,1,0,3.825,3.812,3.812,0,0,1,3.8,0ZM9.866.224c1.049,0,1.9,1.612,1.9,3.6h0c0,1.988-.85,3.6-1.9,3.6s-1.9-1.613-1.9-3.6S8.817.224,9.866.224ZM12.8.6c.369,0,.668,1.444.668,3.226s-.3,3.226-.668,3.226-.668-1.444-.668-3.226S12.433.6,12.8.6Z" fill="url(#a)"/></svg>